<svg width="724" height="349" viewBox="0 0 724 349" fill="none" xmlns="http://www.w3.org/2000/svg">
<rect width="724" height="349" fill="#37B15A"/>
<line x1="361" y1="349" x2="361" y2="4.37114e-08" stroke="#73E794" stroke-width="2"/>
<circle cx="362" cy="170" r="61" stroke="#73E794" stroke-width="2"/>
<circle cx="65" cy="170" r="61" stroke="#73E794" stroke-width="2"/>
<path d="M0 68H95V278H0V68Z" fill="#37B15A"/>
<path d="M95 68H96V67H95V68ZM95 278V279H96V278H95ZM0 69H95V67H0V69ZM94 68V278H96V68H94ZM95 277H0V279H95V277Z" fill="#73E794"/>
<line y1="115" x2="44" y2="115" stroke="#73E794" stroke-width="2"/>
<line x1="45" y1="114" x2="45" y2="232" stroke="#73E794" stroke-width="2"/>
<line y1="231" x2="44" y2="231" stroke="#73E794" stroke-width="2"/>
<circle cx="62" cy="62" r="61" transform="matrix(-1 0 0 1 721 105)" stroke="#73E794" stroke-width="2"/>
<path d="M724 65H629V275H724V65Z" fill="#37B15A"/>
<path d="M629 65H628V64H629V65ZM629 275V276H628V275H629ZM724 66H629V64H724V66ZM630 65V275H628V65H630ZM629 274H724V276H629V274Z" fill="#73E794"/>
<line y1="-1" x2="44" y2="-1" transform="matrix(-1 0 0 1 724 113)" stroke="#73E794" stroke-width="2"/>
<line x1="679" y1="111" x2="679" y2="229" stroke="#73E794" stroke-width="2"/>
<line y1="-1" x2="44" y2="-1" transform="matrix(-1 0 0 1 724 229)" stroke="#73E794" stroke-width="2"/>
</svg>
