<?xml version="1.0" encoding="UTF-8" standalone="no"?>
<!-- Created with Inkscape (http://www.inkscape.org/) -->

<svg
   inkscape:version="1.2.2 (732a01da63, 2022-12-09)"
   sodipodi:docname="star-background.svg"
   width="1000"
   height="1000"
   viewBox="0 0 264.58333 264.58333"
   version="1.1"
   id="svg5"
   xmlns:inkscape="http://www.inkscape.org/namespaces/inkscape"
   xmlns:sodipodi="http://sodipodi.sourceforge.net/DTD/sodipodi-0.dtd"
   xmlns="http://www.w3.org/2000/svg"
   xmlns:svg="http://www.w3.org/2000/svg">
  <sodipodi:namedview
     id="namedview7"
     pagecolor="#ffffff"
     bordercolor="#000000"
     borderopacity="0.25"
     inkscape:showpageshadow="2"
     inkscape:pageopacity="0.0"
     inkscape:pagecheckerboard="0"
     inkscape:deskcolor="#d1d1d1"
     inkscape:document-units="mm"
     showgrid="false"
     showguides="true"
     inkscape:zoom="0.33701158"
     inkscape:cx="388.71068"
     inkscape:cy="537.07353"
     inkscape:window-width="1366"
     inkscape:window-height="715"
     inkscape:window-x="-8"
     inkscape:window-y="-8"
     inkscape:window-maximized="1"
     inkscape:current-layer="layer1" />
  <defs
     id="defs2" />
  <g
     inkscape:label="Camada 1"
     inkscape:groupmode="layer"
     id="layer1">
    <g
       id="g13904">
      <path
         d="M 414.629 322.941 L 165.38 265.339 L 24.7528 479.037 L 2.51372 224.187 L -244.181 156.479 L -8.67717 56.5751 L -20.5153 -198.969 L 147.274 -5.8629 L 386.652 -96.0891 L 254.847 123.16 Z"
         style="fill:none;stroke:#003883;fill-opacity:0.0;stroke-width:9.73152px"
         id="path13886" />
      <path
         d="M 379.51 303.044 L 159.758 251.643 L 35.3736 439.75 L 16.1721 214.958 L -201.31 154.651 L 6.57373 67.1233 L -3.4527 -158.255 L 144.228 12.4416 L 355.514 -66.5425 L 238.902 126.481 Z"
         style="fill:none;stroke:#003883;fill-opacity:0.0;stroke-width:9.73151px"
         id="path13888" />
      <path
         d="M 344.39 283.148 L 154.136 237.947 L 45.9943 400.463 L 29.8305 205.729 L -158.439 152.823 L 21.8246 77.6716 L 13.6099 -117.542 L 141.183 30.746 L 324.375 -36.9958 L 222.956 129.802 Z"
         style="fill:none;stroke:#003883;fill-opacity:0.0;stroke-width:9.7315px"
         id="path13890" />
      <path
         d="M 309.271 263.251 L 148.514 224.252 L 56.6151 361.176 L 43.4889 196.5 L -115.568 150.995 L 37.0755 88.2198 L 30.6724 -76.8281 L 138.138 49.0505 L 293.237 -7.44919 L 207.011 133.123 Z"
         style="fill:none;stroke:#003883;fill-opacity:0.0;stroke-width:9.73149px"
         id="path13892" />
      <path
         d="M 274.151 243.355 L 142.892 210.556 L 67.2359 321.889 L 57.1474 187.271 L -72.6969 149.167 L 52.3264 98.7681 L 47.735 -36.1145 L 135.093 67.3549 L 262.099 22.0974 L 191.066 136.444 Z"
         style="fill:none;stroke:#003883;fill-opacity:0.0;stroke-width:9.73147px"
         id="path13894" />
      <path
         d="M 239.032 223.458 L 137.271 196.86 L 77.8567 282.601 L 70.8058 178.042 L -29.8259 147.338 L 67.5773 109.316 L 64.7976 4.5991 L 132.047 85.6594 L 230.961 51.6441 L 175.12 139.764 Z"
         style="fill:none;stroke:#003883;fill-opacity:0.0;stroke-width:9.73146px"
         id="path13896" />
      <path
         d="M 203.913 203.562 L 131.649 183.165 L 88.4774 243.314 L 84.4642 168.813 L 13.0452 145.51 L 82.8282 119.865 L 81.8601 45.3127 L 129.002 103.964 L 199.822 81.1907 L 159.175 143.085 Z"
         style="fill:none;stroke:#003883;fill-opacity:0.0;stroke-width:9.73145px"
         id="path13898" />
      <path
         d="M 168.793 183.666 L 126.027 169.469 L 99.0982 204.027 L 98.1226 159.584 L 55.9162 143.682 L 98.0791 130.413 L 98.9227 86.0263 L 125.957 122.268 L 168.684 110.737 L 143.229 146.406 Z"
         style="fill:none;stroke:#003883;fill-opacity:0.0;stroke-width:9.73144px"
         id="path13900" />
      <path
         d="M 133.674 163.769 L 120.405 155.773 L 109.719 164.74 L 111.781 150.355 L 98.7872 141.854 L 113.33 140.961 L 115.985 126.74 L 122.912 140.573 L 137.546 140.284 L 127.284 149.727 Z"
         style="fill:none;stroke:#003883;fill-opacity:0.0;stroke-width:9.73143px"
         id="path13902" />
    </g>
  </g>
</svg>
